<svg width="41" height="60" viewBox="0 0 41 60" fill="none" xmlns="http://www.w3.org/2000/svg">
<path d="M0 59.9261H40.9647C38.3644 57.5777 35.2463 55.6763 31.7833 54.3548C29.0534 53.3279 26.0976 52.6625 23.0015 52.4246V38.2571H17.9632V52.4246C10.9287 52.9571 4.64935 55.7237 0 59.9261Z" fill="#DB2979"/>
<path d="M6.30057 11.966C6.48933 12.2629 6.36937 12.6399 6.03066 12.8063L1.89555 14.843C1.98905 15.3203 2.10548 15.7976 2.27572 16.2725L2.31982 16.3938L6.16032 14.5025C6.5008 14.3354 6.92683 14.4419 7.11559 14.7404C7.30436 15.0389 7.18351 15.4151 6.84568 15.5815L2.75115 17.5972L3.42593 19.4823L7.32376 17.5622C7.66424 17.3943 8.08939 17.5023 8.27815 17.8008C8.46691 18.0986 8.34695 18.4748 8.00824 18.6412L3.85637 20.6856L4.36621 22.1105L8.73682 19.9588C9.0773 19.7909 9.50245 19.8982 9.69122 20.1967C9.87998 20.4952 9.76002 20.8714 9.4213 21.0378L4.79753 23.3139L5.86483 26.2943V35.7331C5.86483 40.5084 10.2566 44.3789 15.6751 44.3789H26.3384C30.6111 44.3789 34.0749 41.3262 34.0749 37.5606V36.498C38.5267 34.127 40.8853 29.4683 39.7378 24.8795H34.381C33.9938 24.8795 33.6798 24.6028 33.6798 24.2615C33.6798 23.9202 33.9938 23.6435 34.381 23.6435H39.3541L38.6784 21.7568H33.1205C32.7333 21.7568 32.4193 21.4801 32.4193 21.1388C32.4193 20.7976 32.7333 20.5208 33.1205 20.5208H38.2356L37.56 18.6342H32.0638C31.6766 18.6342 31.3626 18.3574 31.3626 18.0162C31.3626 17.6749 31.6766 17.3982 32.0638 17.3982H37.1181L36.4424 15.5115H30.2583C29.871 15.5115 29.557 15.2348 29.557 14.8935C29.557 14.5522 29.871 14.2755 30.2583 14.2755H35.9996L35.3248 12.3881H29.4415C29.0534 12.3881 28.7393 12.1121 28.7393 11.7708C28.7393 11.4288 29.0534 11.1528 29.4415 11.1528H34.882L34.2064 9.26539H28.6238C28.2366 9.26539 27.9226 8.98943 27.9226 8.64739C27.9226 8.30613 28.2366 8.03016 28.6238 8.03016H33.7645L33.5969 7.56219C33.4196 7.06701 33.1938 6.59826 32.9468 6.14272H27.8061C27.4189 6.14272 27.1049 5.86598 27.1049 5.52472C27.1049 5.18346 27.4189 4.90672 27.8061 4.90672H32.1626C30.0695 2.07323 26.5959 0.270523 22.8172 0.00310972L25.2252 2.09888C25.5004 2.33831 25.5039 2.72932 25.2323 2.97264C25.0938 3.09468 24.9138 3.15609 24.7321 3.15609C24.554 3.15609 24.3758 3.09702 24.2391 2.97808L20.8255 0.0077739C20.3183 0.04431 19.8093 0.103389 19.3013 0.197451L21.8901 2.44947C22.1653 2.6889 22.168 3.07991 21.8963 3.32323C21.7578 3.44605 21.5779 3.50669 21.3971 3.50669C21.2189 3.50669 21.0407 3.44761 20.904 3.32867L17.7391 0.575249L16.1823 1.00824L18.4527 2.98352C18.7279 3.22295 18.7315 3.61474 18.4589 3.85728C18.3213 3.9801 18.1414 4.04151 17.9597 4.04151C17.7815 4.04151 17.6033 3.98165 17.4666 3.86272L14.6696 1.42879L10.3263 2.63682C4.87339 4.15345 1.47304 8.70025 1.73061 13.5075L5.34618 11.7273C5.68665 11.5594 6.11181 11.6674 6.30057 11.966ZM25.9238 8.67615C25.9106 9.00964 25.5983 9.27161 25.2234 9.27161L25.197 9.27083C25.0982 9.27083 15.437 9.00809 11.2339 13.4313C11.0963 13.5766 10.897 13.6521 10.6968 13.6521C10.538 13.6521 10.3775 13.6046 10.2469 13.5082C9.94966 13.289 9.91085 12.8988 10.1596 12.6376C14.8036 7.75031 24.8283 8.01772 25.249 8.03638C25.6363 8.04882 25.9388 8.33567 25.9238 8.67615ZM26.8059 11.4894C26.7918 11.8299 26.5157 12.1105 26.0782 12.0841C25.9803 12.0849 16.319 11.8221 12.1178 16.2446C11.9793 16.3907 11.7799 16.4661 11.5797 16.4661C11.4209 16.4661 11.2604 16.4187 11.1299 16.3215C10.8326 16.1031 10.7938 15.7128 11.0425 15.4509C15.6866 10.562 25.7095 10.8333 26.1311 10.8489C26.5183 10.8613 26.82 11.1482 26.8059 11.4894ZM28.0796 14.2646C28.0646 14.6051 27.762 14.878 27.3527 14.8585C27.2531 14.8616 17.5927 14.5958 13.3897 19.0197C13.2521 19.1651 13.0528 19.2405 12.8525 19.2405C12.6938 19.2405 12.5332 19.1931 12.4027 19.0967C12.1054 18.8775 12.0666 18.488 12.3153 18.2261C16.9603 13.3364 26.984 13.607 27.4048 13.6241C27.792 13.6365 28.0946 13.9234 28.0796 14.2646ZM29.3233 17.3243C29.3092 17.6648 29.0084 17.9408 28.5965 17.919C28.4994 17.9174 18.8364 17.657 14.6352 22.0794C14.4976 22.2256 14.2982 22.301 14.098 22.301C13.9392 22.301 13.7787 22.2536 13.6481 22.1572C13.3509 21.938 13.3121 21.5477 13.5608 21.2858C18.2049 16.3977 28.2295 16.669 28.6494 16.6845C29.0357 16.697 29.3383 16.9838 29.3233 17.3243ZM30.1409 19.7209C30.1259 20.0614 29.8225 20.328 29.4141 20.3156C29.3171 20.3172 19.6559 20.0529 15.4528 24.4761C15.3152 24.6222 15.1159 24.6968 14.9157 24.6968C14.756 24.6968 14.5964 24.6494 14.4658 24.553C14.1686 24.3338 14.1298 23.9436 14.3785 23.6824C19.0225 18.792 29.0463 19.0625 29.4662 19.0804C29.8543 19.0936 30.1559 19.3804 30.1409 19.7209ZM30.9595 22.6135C30.9454 22.947 30.6331 23.209 30.2583 23.209H30.2318C30.133 23.2105 20.4735 22.9462 16.2705 27.3694C16.1329 27.5156 15.9336 27.591 15.7333 27.591C15.5746 27.591 15.414 27.5435 15.2835 27.4471C14.9862 27.2279 14.9474 26.8377 15.1962 26.5757C19.8411 21.6861 29.8596 21.9582 30.2847 21.9745C30.6711 21.9862 30.9736 22.273 30.9595 22.6135ZM26.685 28.3769C26.6277 28.0403 26.8905 27.7247 27.2742 27.6741C27.6474 27.622 28.0134 27.8553 28.0716 28.1911C28.5091 30.7167 27.8705 35.7696 22.3241 36.8159C22.2747 36.8253 22.2262 36.8291 22.1768 36.8291C21.854 36.8291 21.5629 36.6317 21.4923 36.341C21.4112 36.0075 21.6529 35.6786 22.0313 35.6071C27.6668 34.5445 26.7274 28.628 26.685 28.3769ZM27.3395 37.0888C27.2575 37.1168 27.1728 37.13 27.089 37.13C26.8067 37.13 26.5412 36.9792 26.4336 36.7327C26.296 36.414 26.4769 36.0564 26.8385 35.9344C31.3582 34.4077 30.5255 29.1861 30.4876 28.9646C30.4294 28.6272 30.6931 28.3123 31.0768 28.2618C31.4499 28.209 31.8151 28.4422 31.8742 28.7788C31.8865 28.8425 32.9194 35.2037 27.3395 37.0888ZM34.2849 34.6471C34.149 34.8197 33.9303 34.9122 33.708 34.9122C33.5713 34.9122 33.431 34.8772 33.3093 34.8026C32.9909 34.6082 32.9124 34.2226 33.1329 33.942C34.83 31.7872 34.3272 28.687 34.3219 28.6559C34.2655 28.3186 34.5283 28.003 34.9111 27.9532C35.286 27.9027 35.6503 28.1336 35.7085 28.4702C35.7341 28.6163 36.3048 32.0818 34.2849 34.6471ZM10.2257 36.4537V36.1007C13.3086 39.5429 18.5842 41.1381 23.611 39.7404L30.9269 37.706C30.5414 39.6525 28.6264 41.1357 26.3066 41.1357H15.5384C12.6038 41.1357 10.2257 39.04 10.2257 36.4537ZM9.14345 10.1835C13.7893 5.29384 23.8113 5.56514 24.232 5.58147C24.6184 5.59468 24.9209 5.88075 24.9059 6.22202C24.8927 6.5625 24.5981 6.82991 24.1791 6.8167C24.0812 6.81748 14.4208 6.55317 10.2178 10.9779C10.0802 11.1233 9.88086 11.1987 9.68063 11.1987C9.52098 11.1987 9.36132 11.1513 9.23078 11.0549C8.93352 10.8349 8.89471 10.4454 9.14345 10.1835Z" fill="#DB2979"/>
</svg>
